<mxfile host="app.diagrams.net" modified="2023-12-24T01:05:08.218Z" agent="Mozilla/5.0 (Windows NT 10.0; Win64; x64; rv:121.0) Gecko/20100101 Firefox/121.0" etag="K0hI1UpdqjaNPUYffS9e" version="22.1.11" type="device">
  <diagram name="Strona-1" id="QdyoNQn1TazNJfPkpICF">
    <mxGraphModel dx="1050" dy="558" grid="1" gridSize="10" guides="1" tooltips="1" connect="1" arrows="1" fold="1" page="1" pageScale="1" pageWidth="827" pageHeight="1169" math="0" shadow="0">
      <root>
        <mxCell id="0" />
        <mxCell id="1" parent="0" />
        <mxCell id="F89bRiw3mPa7HIBQUPXN-23" style="edgeStyle=orthogonalEdgeStyle;rounded=0;orthogonalLoop=1;jettySize=auto;html=1;exitX=0.5;exitY=1;exitDx=0;exitDy=0;" edge="1" parent="1" source="F89bRiw3mPa7HIBQUPXN-1" target="F89bRiw3mPa7HIBQUPXN-21">
          <mxGeometry relative="1" as="geometry" />
        </mxCell>
        <mxCell id="F89bRiw3mPa7HIBQUPXN-1" value="The State of Crown and Cleargy" style="rounded=0;whiteSpace=wrap;html=1;" vertex="1" parent="1">
          <mxGeometry x="354" width="120" height="60" as="geometry" />
        </mxCell>
        <mxCell id="F89bRiw3mPa7HIBQUPXN-65" style="edgeStyle=orthogonalEdgeStyle;rounded=0;orthogonalLoop=1;jettySize=auto;html=1;exitX=0.25;exitY=1;exitDx=0;exitDy=0;entryX=0.75;entryY=0;entryDx=0;entryDy=0;" edge="1" parent="1" source="F89bRiw3mPa7HIBQUPXN-2" target="F89bRiw3mPa7HIBQUPXN-59">
          <mxGeometry relative="1" as="geometry" />
        </mxCell>
        <mxCell id="F89bRiw3mPa7HIBQUPXN-67" style="edgeStyle=orthogonalEdgeStyle;rounded=0;orthogonalLoop=1;jettySize=auto;html=1;exitX=0.5;exitY=1;exitDx=0;exitDy=0;entryX=0.5;entryY=0;entryDx=0;entryDy=0;" edge="1" parent="1" source="F89bRiw3mPa7HIBQUPXN-2" target="F89bRiw3mPa7HIBQUPXN-62">
          <mxGeometry relative="1" as="geometry" />
        </mxCell>
        <mxCell id="F89bRiw3mPa7HIBQUPXN-2" value="Stromgarde Alliance" style="rounded=0;whiteSpace=wrap;html=1;" vertex="1" parent="1">
          <mxGeometry x="180" y="120" width="120" height="60" as="geometry" />
        </mxCell>
        <mxCell id="F89bRiw3mPa7HIBQUPXN-17" style="edgeStyle=orthogonalEdgeStyle;rounded=0;orthogonalLoop=1;jettySize=auto;html=1;exitX=0.5;exitY=1;exitDx=0;exitDy=0;" edge="1" parent="1" source="F89bRiw3mPa7HIBQUPXN-3" target="F89bRiw3mPa7HIBQUPXN-7">
          <mxGeometry relative="1" as="geometry" />
        </mxCell>
        <mxCell id="F89bRiw3mPa7HIBQUPXN-3" value="Appeace the Vassals" style="rounded=0;whiteSpace=wrap;html=1;" vertex="1" parent="1">
          <mxGeometry x="707" width="120" height="60" as="geometry" />
        </mxCell>
        <mxCell id="F89bRiw3mPa7HIBQUPXN-60" style="edgeStyle=orthogonalEdgeStyle;rounded=0;orthogonalLoop=1;jettySize=auto;html=1;exitX=0.25;exitY=1;exitDx=0;exitDy=0;" edge="1" parent="1" source="F89bRiw3mPa7HIBQUPXN-4" target="F89bRiw3mPa7HIBQUPXN-58">
          <mxGeometry relative="1" as="geometry" />
        </mxCell>
        <mxCell id="F89bRiw3mPa7HIBQUPXN-61" style="edgeStyle=orthogonalEdgeStyle;rounded=0;orthogonalLoop=1;jettySize=auto;html=1;exitX=0.5;exitY=1;exitDx=0;exitDy=0;" edge="1" parent="1" source="F89bRiw3mPa7HIBQUPXN-4" target="F89bRiw3mPa7HIBQUPXN-2">
          <mxGeometry relative="1" as="geometry" />
        </mxCell>
        <mxCell id="F89bRiw3mPa7HIBQUPXN-4" value="Diplomatic Ambassadors" style="rounded=0;whiteSpace=wrap;html=1;" vertex="1" parent="1">
          <mxGeometry x="180" width="120" height="60" as="geometry" />
        </mxCell>
        <mxCell id="F89bRiw3mPa7HIBQUPXN-26" style="edgeStyle=orthogonalEdgeStyle;rounded=0;orthogonalLoop=1;jettySize=auto;html=1;exitX=0.75;exitY=1;exitDx=0;exitDy=0;entryX=0.25;entryY=0;entryDx=0;entryDy=0;" edge="1" parent="1" source="F89bRiw3mPa7HIBQUPXN-5" target="F89bRiw3mPa7HIBQUPXN-7">
          <mxGeometry relative="1" as="geometry" />
        </mxCell>
        <mxCell id="F89bRiw3mPa7HIBQUPXN-28" style="edgeStyle=orthogonalEdgeStyle;rounded=0;orthogonalLoop=1;jettySize=auto;html=1;exitX=0.5;exitY=1;exitDx=0;exitDy=0;" edge="1" parent="1" source="F89bRiw3mPa7HIBQUPXN-5" target="F89bRiw3mPa7HIBQUPXN-27">
          <mxGeometry relative="1" as="geometry" />
        </mxCell>
        <mxCell id="F89bRiw3mPa7HIBQUPXN-5" value="Stabilize the Kingdom" style="rounded=0;whiteSpace=wrap;html=1;" vertex="1" parent="1">
          <mxGeometry x="530" width="120" height="60" as="geometry" />
        </mxCell>
        <mxCell id="F89bRiw3mPa7HIBQUPXN-10" style="edgeStyle=orthogonalEdgeStyle;rounded=0;orthogonalLoop=1;jettySize=auto;html=1;exitX=0.5;exitY=1;exitDx=0;exitDy=0;entryX=0.5;entryY=0;entryDx=0;entryDy=0;" edge="1" parent="1" source="F89bRiw3mPa7HIBQUPXN-7" target="F89bRiw3mPa7HIBQUPXN-9">
          <mxGeometry relative="1" as="geometry" />
        </mxCell>
        <mxCell id="F89bRiw3mPa7HIBQUPXN-12" style="edgeStyle=orthogonalEdgeStyle;rounded=0;orthogonalLoop=1;jettySize=auto;html=1;exitX=0.25;exitY=1;exitDx=0;exitDy=0;" edge="1" parent="1" source="F89bRiw3mPa7HIBQUPXN-7" target="F89bRiw3mPa7HIBQUPXN-11">
          <mxGeometry relative="1" as="geometry" />
        </mxCell>
        <mxCell id="F89bRiw3mPa7HIBQUPXN-7" value="Ties with Rivendare Family" style="rounded=0;whiteSpace=wrap;html=1;" vertex="1" parent="1">
          <mxGeometry x="707" y="120" width="120" height="60" as="geometry" />
        </mxCell>
        <mxCell id="F89bRiw3mPa7HIBQUPXN-15" style="edgeStyle=orthogonalEdgeStyle;rounded=0;orthogonalLoop=1;jettySize=auto;html=1;exitX=0.5;exitY=1;exitDx=0;exitDy=0;entryX=0.5;entryY=0;entryDx=0;entryDy=0;" edge="1" parent="1" source="F89bRiw3mPa7HIBQUPXN-9" target="F89bRiw3mPa7HIBQUPXN-13">
          <mxGeometry relative="1" as="geometry" />
        </mxCell>
        <mxCell id="F89bRiw3mPa7HIBQUPXN-9" value="Integration of Stratholme" style="rounded=0;whiteSpace=wrap;html=1;" vertex="1" parent="1">
          <mxGeometry x="707" y="240" width="120" height="60" as="geometry" />
        </mxCell>
        <mxCell id="F89bRiw3mPa7HIBQUPXN-19" style="edgeStyle=orthogonalEdgeStyle;rounded=0;orthogonalLoop=1;jettySize=auto;html=1;exitX=0.25;exitY=1;exitDx=0;exitDy=0;entryX=0.75;entryY=0;entryDx=0;entryDy=0;" edge="1" parent="1" source="F89bRiw3mPa7HIBQUPXN-11" target="F89bRiw3mPa7HIBQUPXN-18">
          <mxGeometry relative="1" as="geometry" />
        </mxCell>
        <mxCell id="F89bRiw3mPa7HIBQUPXN-11" value="Loyalities of Lesser Subjects" style="rounded=0;whiteSpace=wrap;html=1;" vertex="1" parent="1">
          <mxGeometry x="530" y="240" width="120" height="60" as="geometry" />
        </mxCell>
        <mxCell id="F89bRiw3mPa7HIBQUPXN-30" style="edgeStyle=orthogonalEdgeStyle;rounded=0;orthogonalLoop=1;jettySize=auto;html=1;exitX=0.5;exitY=1;exitDx=0;exitDy=0;" edge="1" parent="1" source="F89bRiw3mPa7HIBQUPXN-13" target="F89bRiw3mPa7HIBQUPXN-29">
          <mxGeometry relative="1" as="geometry" />
        </mxCell>
        <mxCell id="F89bRiw3mPa7HIBQUPXN-13" value="Culling the Eastweald Trolls" style="rounded=0;whiteSpace=wrap;html=1;" vertex="1" parent="1">
          <mxGeometry x="707" y="360" width="120" height="60" as="geometry" />
        </mxCell>
        <mxCell id="F89bRiw3mPa7HIBQUPXN-38" style="edgeStyle=orthogonalEdgeStyle;rounded=0;orthogonalLoop=1;jettySize=auto;html=1;exitX=0.5;exitY=1;exitDx=0;exitDy=0;entryX=0.5;entryY=0;entryDx=0;entryDy=0;" edge="1" parent="1" source="F89bRiw3mPa7HIBQUPXN-18" target="F89bRiw3mPa7HIBQUPXN-37">
          <mxGeometry relative="1" as="geometry" />
        </mxCell>
        <mxCell id="F89bRiw3mPa7HIBQUPXN-40" style="edgeStyle=orthogonalEdgeStyle;rounded=0;orthogonalLoop=1;jettySize=auto;html=1;exitX=0.25;exitY=1;exitDx=0;exitDy=0;" edge="1" parent="1" source="F89bRiw3mPa7HIBQUPXN-18" target="F89bRiw3mPa7HIBQUPXN-39">
          <mxGeometry relative="1" as="geometry" />
        </mxCell>
        <mxCell id="F89bRiw3mPa7HIBQUPXN-18" value="Vandelmar Integration" style="rounded=0;whiteSpace=wrap;html=1;" vertex="1" parent="1">
          <mxGeometry x="354" y="360" width="120" height="60" as="geometry" />
        </mxCell>
        <mxCell id="F89bRiw3mPa7HIBQUPXN-20" style="edgeStyle=orthogonalEdgeStyle;rounded=0;orthogonalLoop=1;jettySize=auto;html=1;exitX=0.75;exitY=1;exitDx=0;exitDy=0;entryX=0.2;entryY=-0.067;entryDx=0;entryDy=0;entryPerimeter=0;" edge="1" parent="1" source="F89bRiw3mPa7HIBQUPXN-11" target="F89bRiw3mPa7HIBQUPXN-13">
          <mxGeometry relative="1" as="geometry" />
        </mxCell>
        <mxCell id="F89bRiw3mPa7HIBQUPXN-24" style="edgeStyle=orthogonalEdgeStyle;rounded=0;orthogonalLoop=1;jettySize=auto;html=1;exitX=0.5;exitY=1;exitDx=0;exitDy=0;entryX=0.5;entryY=0;entryDx=0;entryDy=0;" edge="1" parent="1" source="F89bRiw3mPa7HIBQUPXN-21" target="F89bRiw3mPa7HIBQUPXN-22">
          <mxGeometry relative="1" as="geometry" />
        </mxCell>
        <mxCell id="F89bRiw3mPa7HIBQUPXN-21" value="Ties of the Light" style="rounded=0;whiteSpace=wrap;html=1;" vertex="1" parent="1">
          <mxGeometry x="354" y="120" width="120" height="60" as="geometry" />
        </mxCell>
        <mxCell id="F89bRiw3mPa7HIBQUPXN-25" style="edgeStyle=orthogonalEdgeStyle;rounded=0;orthogonalLoop=1;jettySize=auto;html=1;exitX=0.5;exitY=1;exitDx=0;exitDy=0;" edge="1" parent="1" source="F89bRiw3mPa7HIBQUPXN-22" target="F89bRiw3mPa7HIBQUPXN-18">
          <mxGeometry relative="1" as="geometry" />
        </mxCell>
        <mxCell id="F89bRiw3mPa7HIBQUPXN-22" value="Ruler of the People" style="rounded=0;whiteSpace=wrap;html=1;" vertex="1" parent="1">
          <mxGeometry x="353.5" y="240" width="120" height="60" as="geometry" />
        </mxCell>
        <mxCell id="F89bRiw3mPa7HIBQUPXN-27" value="Dealing with the Pest" style="rounded=0;whiteSpace=wrap;html=1;" vertex="1" parent="1">
          <mxGeometry x="530" y="120" width="120" height="60" as="geometry" />
        </mxCell>
        <mxCell id="F89bRiw3mPa7HIBQUPXN-32" style="edgeStyle=orthogonalEdgeStyle;rounded=0;orthogonalLoop=1;jettySize=auto;html=1;exitX=0.5;exitY=1;exitDx=0;exitDy=0;" edge="1" parent="1" source="F89bRiw3mPa7HIBQUPXN-29" target="F89bRiw3mPa7HIBQUPXN-31">
          <mxGeometry relative="1" as="geometry" />
        </mxCell>
        <mxCell id="F89bRiw3mPa7HIBQUPXN-34" style="edgeStyle=orthogonalEdgeStyle;rounded=0;orthogonalLoop=1;jettySize=auto;html=1;exitX=0.25;exitY=1;exitDx=0;exitDy=0;" edge="1" parent="1" source="F89bRiw3mPa7HIBQUPXN-29" target="F89bRiw3mPa7HIBQUPXN-33">
          <mxGeometry relative="1" as="geometry" />
        </mxCell>
        <mxCell id="F89bRiw3mPa7HIBQUPXN-29" value="The Fate of New Avalon" style="rounded=0;whiteSpace=wrap;html=1;" vertex="1" parent="1">
          <mxGeometry x="707" y="480" width="120" height="60" as="geometry" />
        </mxCell>
        <mxCell id="F89bRiw3mPa7HIBQUPXN-31" value="Crackdown on Zul&#39;aman" style="rounded=0;whiteSpace=wrap;html=1;" vertex="1" parent="1">
          <mxGeometry x="707" y="600" width="120" height="60" as="geometry" />
        </mxCell>
        <mxCell id="F89bRiw3mPa7HIBQUPXN-36" style="edgeStyle=orthogonalEdgeStyle;rounded=0;orthogonalLoop=1;jettySize=auto;html=1;exitX=0.5;exitY=1;exitDx=0;exitDy=0;" edge="1" parent="1" source="F89bRiw3mPa7HIBQUPXN-33" target="F89bRiw3mPa7HIBQUPXN-35">
          <mxGeometry relative="1" as="geometry" />
        </mxCell>
        <mxCell id="F89bRiw3mPa7HIBQUPXN-33" value="The Thallasian Pass" style="rounded=0;whiteSpace=wrap;html=1;" vertex="1" parent="1">
          <mxGeometry x="530" y="600" width="120" height="60" as="geometry" />
        </mxCell>
        <mxCell id="F89bRiw3mPa7HIBQUPXN-35" value="Elven Diplomacy" style="rounded=0;whiteSpace=wrap;html=1;" vertex="1" parent="1">
          <mxGeometry x="530" y="720" width="120" height="60" as="geometry" />
        </mxCell>
        <mxCell id="F89bRiw3mPa7HIBQUPXN-46" style="edgeStyle=orthogonalEdgeStyle;rounded=0;orthogonalLoop=1;jettySize=auto;html=1;exitX=0.5;exitY=1;exitDx=0;exitDy=0;" edge="1" parent="1" source="F89bRiw3mPa7HIBQUPXN-37" target="F89bRiw3mPa7HIBQUPXN-44">
          <mxGeometry relative="1" as="geometry" />
        </mxCell>
        <mxCell id="F89bRiw3mPa7HIBQUPXN-37" value="Fenris Reclamation" style="rounded=0;whiteSpace=wrap;html=1;" vertex="1" parent="1">
          <mxGeometry x="354" y="480" width="120" height="60" as="geometry" />
        </mxCell>
        <mxCell id="F89bRiw3mPa7HIBQUPXN-42" style="edgeStyle=orthogonalEdgeStyle;rounded=0;orthogonalLoop=1;jettySize=auto;html=1;exitX=0.5;exitY=1;exitDx=0;exitDy=0;" edge="1" parent="1" source="F89bRiw3mPa7HIBQUPXN-39" target="F89bRiw3mPa7HIBQUPXN-41">
          <mxGeometry relative="1" as="geometry" />
        </mxCell>
        <mxCell id="F89bRiw3mPa7HIBQUPXN-45" style="edgeStyle=orthogonalEdgeStyle;rounded=0;orthogonalLoop=1;jettySize=auto;html=1;exitX=0.75;exitY=1;exitDx=0;exitDy=0;entryX=0.25;entryY=0;entryDx=0;entryDy=0;" edge="1" parent="1" source="F89bRiw3mPa7HIBQUPXN-39" target="F89bRiw3mPa7HIBQUPXN-44">
          <mxGeometry relative="1" as="geometry" />
        </mxCell>
        <mxCell id="F89bRiw3mPa7HIBQUPXN-48" style="edgeStyle=orthogonalEdgeStyle;rounded=0;orthogonalLoop=1;jettySize=auto;html=1;exitX=0.25;exitY=1;exitDx=0;exitDy=0;" edge="1" parent="1" source="F89bRiw3mPa7HIBQUPXN-39" target="F89bRiw3mPa7HIBQUPXN-43">
          <mxGeometry relative="1" as="geometry" />
        </mxCell>
        <mxCell id="F89bRiw3mPa7HIBQUPXN-39" value="Holding in Silverpine Forest" style="rounded=0;whiteSpace=wrap;html=1;" vertex="1" parent="1">
          <mxGeometry x="180" y="480" width="120" height="60" as="geometry" />
        </mxCell>
        <mxCell id="F89bRiw3mPa7HIBQUPXN-50" style="edgeStyle=orthogonalEdgeStyle;rounded=0;orthogonalLoop=1;jettySize=auto;html=1;exitX=0.5;exitY=1;exitDx=0;exitDy=0;" edge="1" parent="1" source="F89bRiw3mPa7HIBQUPXN-41" target="F89bRiw3mPa7HIBQUPXN-49">
          <mxGeometry relative="1" as="geometry" />
        </mxCell>
        <mxCell id="F89bRiw3mPa7HIBQUPXN-41" value="Dalaran Ties" style="rounded=0;whiteSpace=wrap;html=1;" vertex="1" parent="1">
          <mxGeometry x="180" y="600" width="120" height="60" as="geometry" />
        </mxCell>
        <mxCell id="F89bRiw3mPa7HIBQUPXN-56" style="edgeStyle=orthogonalEdgeStyle;rounded=0;orthogonalLoop=1;jettySize=auto;html=1;exitX=0.5;exitY=1;exitDx=0;exitDy=0;entryX=0.5;entryY=0;entryDx=0;entryDy=0;" edge="1" parent="1" source="F89bRiw3mPa7HIBQUPXN-43" target="F89bRiw3mPa7HIBQUPXN-54">
          <mxGeometry relative="1" as="geometry" />
        </mxCell>
        <mxCell id="F89bRiw3mPa7HIBQUPXN-43" value="Silverpine Expansion" style="rounded=0;whiteSpace=wrap;html=1;" vertex="1" parent="1">
          <mxGeometry y="600" width="120" height="60" as="geometry" />
        </mxCell>
        <mxCell id="F89bRiw3mPa7HIBQUPXN-51" style="edgeStyle=orthogonalEdgeStyle;rounded=0;orthogonalLoop=1;jettySize=auto;html=1;exitX=0.5;exitY=1;exitDx=0;exitDy=0;" edge="1" parent="1" source="F89bRiw3mPa7HIBQUPXN-44" target="F89bRiw3mPa7HIBQUPXN-47">
          <mxGeometry relative="1" as="geometry" />
        </mxCell>
        <mxCell id="F89bRiw3mPa7HIBQUPXN-44" value="Alterac Diplomacy" style="rounded=0;whiteSpace=wrap;html=1;" vertex="1" parent="1">
          <mxGeometry x="354" y="600" width="120" height="60" as="geometry" />
        </mxCell>
        <mxCell id="F89bRiw3mPa7HIBQUPXN-53" style="edgeStyle=orthogonalEdgeStyle;rounded=0;orthogonalLoop=1;jettySize=auto;html=1;exitX=0.5;exitY=1;exitDx=0;exitDy=0;" edge="1" parent="1" source="F89bRiw3mPa7HIBQUPXN-47" target="F89bRiw3mPa7HIBQUPXN-52">
          <mxGeometry relative="1" as="geometry" />
        </mxCell>
        <mxCell id="F89bRiw3mPa7HIBQUPXN-47" value="Pressure on Perenolde" style="rounded=0;whiteSpace=wrap;html=1;" vertex="1" parent="1">
          <mxGeometry x="354" y="720" width="120" height="60" as="geometry" />
        </mxCell>
        <mxCell id="F89bRiw3mPa7HIBQUPXN-49" value="Free City of Dalaran" style="rounded=0;whiteSpace=wrap;html=1;" vertex="1" parent="1">
          <mxGeometry x="180" y="720" width="120" height="60" as="geometry" />
        </mxCell>
        <mxCell id="F89bRiw3mPa7HIBQUPXN-52" value="Altaraci Ultimaturm" style="rounded=0;whiteSpace=wrap;html=1;" vertex="1" parent="1">
          <mxGeometry x="354" y="840" width="120" height="60" as="geometry" />
        </mxCell>
        <mxCell id="F89bRiw3mPa7HIBQUPXN-57" style="edgeStyle=orthogonalEdgeStyle;rounded=0;orthogonalLoop=1;jettySize=auto;html=1;exitX=0.5;exitY=1;exitDx=0;exitDy=0;" edge="1" parent="1" source="F89bRiw3mPa7HIBQUPXN-54" target="F89bRiw3mPa7HIBQUPXN-55">
          <mxGeometry relative="1" as="geometry" />
        </mxCell>
        <mxCell id="F89bRiw3mPa7HIBQUPXN-54" value="Gilneas Ultimatum" style="rounded=0;whiteSpace=wrap;html=1;" vertex="1" parent="1">
          <mxGeometry y="720" width="120" height="60" as="geometry" />
        </mxCell>
        <mxCell id="F89bRiw3mPa7HIBQUPXN-55" value="Contain the Graymane&#39;s" style="rounded=0;whiteSpace=wrap;html=1;" vertex="1" parent="1">
          <mxGeometry y="840" width="120" height="60" as="geometry" />
        </mxCell>
        <mxCell id="F89bRiw3mPa7HIBQUPXN-64" style="edgeStyle=orthogonalEdgeStyle;rounded=0;orthogonalLoop=1;jettySize=auto;html=1;exitX=0.5;exitY=1;exitDx=0;exitDy=0;" edge="1" parent="1" source="F89bRiw3mPa7HIBQUPXN-58" target="F89bRiw3mPa7HIBQUPXN-59">
          <mxGeometry relative="1" as="geometry" />
        </mxCell>
        <mxCell id="F89bRiw3mPa7HIBQUPXN-58" value="Kul&#39;tiran Diplomacy" style="rounded=0;whiteSpace=wrap;html=1;" vertex="1" parent="1">
          <mxGeometry y="120" width="120" height="60" as="geometry" />
        </mxCell>
        <mxCell id="F89bRiw3mPa7HIBQUPXN-70" style="edgeStyle=orthogonalEdgeStyle;rounded=0;orthogonalLoop=1;jettySize=auto;html=1;exitX=0.5;exitY=1;exitDx=0;exitDy=0;" edge="1" parent="1" source="F89bRiw3mPa7HIBQUPXN-59" target="F89bRiw3mPa7HIBQUPXN-69">
          <mxGeometry relative="1" as="geometry" />
        </mxCell>
        <mxCell id="F89bRiw3mPa7HIBQUPXN-59" value="Stormwind Diplomacy" style="rounded=0;whiteSpace=wrap;html=1;" vertex="1" parent="1">
          <mxGeometry y="240" width="120" height="60" as="geometry" />
        </mxCell>
        <mxCell id="F89bRiw3mPa7HIBQUPXN-68" style="edgeStyle=orthogonalEdgeStyle;rounded=0;orthogonalLoop=1;jettySize=auto;html=1;" edge="1" parent="1" source="F89bRiw3mPa7HIBQUPXN-62" target="F89bRiw3mPa7HIBQUPXN-66">
          <mxGeometry relative="1" as="geometry" />
        </mxCell>
        <mxCell id="F89bRiw3mPa7HIBQUPXN-62" value="Familiar Ties: Stromgarde" style="rounded=0;whiteSpace=wrap;html=1;" vertex="1" parent="1">
          <mxGeometry x="180" y="240" width="120" height="60" as="geometry" />
        </mxCell>
        <mxCell id="F89bRiw3mPa7HIBQUPXN-66" value="Question of Tol Barad" style="rounded=0;whiteSpace=wrap;html=1;" vertex="1" parent="1">
          <mxGeometry x="180" y="360" width="120" height="60" as="geometry" />
        </mxCell>
        <mxCell id="F89bRiw3mPa7HIBQUPXN-69" value="Mission in the South" style="rounded=0;whiteSpace=wrap;html=1;" vertex="1" parent="1">
          <mxGeometry y="360" width="120" height="60" as="geometry" />
        </mxCell>
        <mxCell id="F89bRiw3mPa7HIBQUPXN-82" style="edgeStyle=orthogonalEdgeStyle;rounded=0;orthogonalLoop=1;jettySize=auto;html=1;exitX=0.5;exitY=1;exitDx=0;exitDy=0;" edge="1" parent="1" source="F89bRiw3mPa7HIBQUPXN-71" target="F89bRiw3mPa7HIBQUPXN-74">
          <mxGeometry relative="1" as="geometry" />
        </mxCell>
        <mxCell id="F89bRiw3mPa7HIBQUPXN-83" style="edgeStyle=orthogonalEdgeStyle;rounded=0;orthogonalLoop=1;jettySize=auto;html=1;exitX=0.25;exitY=1;exitDx=0;exitDy=0;" edge="1" parent="1" source="F89bRiw3mPa7HIBQUPXN-71" target="F89bRiw3mPa7HIBQUPXN-72">
          <mxGeometry relative="1" as="geometry" />
        </mxCell>
        <mxCell id="F89bRiw3mPa7HIBQUPXN-87" style="edgeStyle=orthogonalEdgeStyle;rounded=0;orthogonalLoop=1;jettySize=auto;html=1;exitX=0.75;exitY=1;exitDx=0;exitDy=0;" edge="1" parent="1" source="F89bRiw3mPa7HIBQUPXN-71" target="F89bRiw3mPa7HIBQUPXN-77">
          <mxGeometry relative="1" as="geometry" />
        </mxCell>
        <mxCell id="F89bRiw3mPa7HIBQUPXN-71" value="The Feudal Reform" style="rounded=0;whiteSpace=wrap;html=1;" vertex="1" parent="1">
          <mxGeometry x="180" y="960" width="120" height="60" as="geometry" />
        </mxCell>
        <mxCell id="F89bRiw3mPa7HIBQUPXN-84" style="edgeStyle=orthogonalEdgeStyle;rounded=0;orthogonalLoop=1;jettySize=auto;html=1;exitX=0.5;exitY=1;exitDx=0;exitDy=0;entryX=0.5;entryY=0;entryDx=0;entryDy=0;" edge="1" parent="1" source="F89bRiw3mPa7HIBQUPXN-72" target="F89bRiw3mPa7HIBQUPXN-73">
          <mxGeometry relative="1" as="geometry" />
        </mxCell>
        <mxCell id="F89bRiw3mPa7HIBQUPXN-72" value="Investition in Tirisfal Glades" style="rounded=0;whiteSpace=wrap;html=1;" vertex="1" parent="1">
          <mxGeometry y="1080" width="120" height="60" as="geometry" />
        </mxCell>
        <mxCell id="F89bRiw3mPa7HIBQUPXN-85" style="edgeStyle=orthogonalEdgeStyle;rounded=0;orthogonalLoop=1;jettySize=auto;html=1;exitX=0.5;exitY=1;exitDx=0;exitDy=0;" edge="1" parent="1" source="F89bRiw3mPa7HIBQUPXN-73" target="F89bRiw3mPa7HIBQUPXN-79">
          <mxGeometry relative="1" as="geometry" />
        </mxCell>
        <mxCell id="F89bRiw3mPa7HIBQUPXN-73" value="Developing the City of Brill" style="rounded=0;whiteSpace=wrap;html=1;" vertex="1" parent="1">
          <mxGeometry y="1200" width="120" height="60" as="geometry" />
        </mxCell>
        <mxCell id="F89bRiw3mPa7HIBQUPXN-86" style="edgeStyle=orthogonalEdgeStyle;rounded=0;orthogonalLoop=1;jettySize=auto;html=1;exitX=0.5;exitY=1;exitDx=0;exitDy=0;" edge="1" parent="1" source="F89bRiw3mPa7HIBQUPXN-74" target="F89bRiw3mPa7HIBQUPXN-76">
          <mxGeometry relative="1" as="geometry" />
        </mxCell>
        <mxCell id="F89bRiw3mPa7HIBQUPXN-74" value="Investition in Western Eastweald" style="rounded=0;whiteSpace=wrap;html=1;" vertex="1" parent="1">
          <mxGeometry x="180" y="1080" width="120" height="60" as="geometry" />
        </mxCell>
        <mxCell id="F89bRiw3mPa7HIBQUPXN-89" style="edgeStyle=orthogonalEdgeStyle;rounded=0;orthogonalLoop=1;jettySize=auto;html=1;exitX=0.5;exitY=1;exitDx=0;exitDy=0;" edge="1" parent="1" source="F89bRiw3mPa7HIBQUPXN-76" target="F89bRiw3mPa7HIBQUPXN-80">
          <mxGeometry relative="1" as="geometry" />
        </mxCell>
        <mxCell id="F89bRiw3mPa7HIBQUPXN-76" value="Developing the City of Andorhal" style="rounded=0;whiteSpace=wrap;html=1;" vertex="1" parent="1">
          <mxGeometry x="180" y="1200" width="120" height="60" as="geometry" />
        </mxCell>
        <mxCell id="F89bRiw3mPa7HIBQUPXN-88" style="edgeStyle=orthogonalEdgeStyle;rounded=0;orthogonalLoop=1;jettySize=auto;html=1;exitX=0.5;exitY=1;exitDx=0;exitDy=0;" edge="1" parent="1" source="F89bRiw3mPa7HIBQUPXN-77" target="F89bRiw3mPa7HIBQUPXN-78">
          <mxGeometry relative="1" as="geometry" />
        </mxCell>
        <mxCell id="F89bRiw3mPa7HIBQUPXN-77" value="Investition in Eastern Eastweald" style="rounded=0;whiteSpace=wrap;html=1;" vertex="1" parent="1">
          <mxGeometry x="354" y="1080" width="120" height="60" as="geometry" />
        </mxCell>
        <mxCell id="F89bRiw3mPa7HIBQUPXN-90" style="edgeStyle=orthogonalEdgeStyle;rounded=0;orthogonalLoop=1;jettySize=auto;html=1;exitX=0.5;exitY=1;exitDx=0;exitDy=0;entryX=0.5;entryY=0;entryDx=0;entryDy=0;" edge="1" parent="1" source="F89bRiw3mPa7HIBQUPXN-78" target="F89bRiw3mPa7HIBQUPXN-81">
          <mxGeometry relative="1" as="geometry" />
        </mxCell>
        <mxCell id="F89bRiw3mPa7HIBQUPXN-78" value="Development of Stratholme" style="rounded=0;whiteSpace=wrap;html=1;" vertex="1" parent="1">
          <mxGeometry x="354" y="1200" width="120" height="60" as="geometry" />
        </mxCell>
        <mxCell id="F89bRiw3mPa7HIBQUPXN-92" style="edgeStyle=orthogonalEdgeStyle;rounded=0;orthogonalLoop=1;jettySize=auto;html=1;exitX=0.5;exitY=1;exitDx=0;exitDy=0;" edge="1" parent="1" source="F89bRiw3mPa7HIBQUPXN-79" target="F89bRiw3mPa7HIBQUPXN-91">
          <mxGeometry relative="1" as="geometry" />
        </mxCell>
        <mxCell id="F89bRiw3mPa7HIBQUPXN-79" value="Vandelmar&#39;s Communities" style="rounded=0;whiteSpace=wrap;html=1;" vertex="1" parent="1">
          <mxGeometry y="1320" width="120" height="60" as="geometry" />
        </mxCell>
        <mxCell id="F89bRiw3mPa7HIBQUPXN-94" style="edgeStyle=orthogonalEdgeStyle;rounded=0;orthogonalLoop=1;jettySize=auto;html=1;exitX=0.5;exitY=1;exitDx=0;exitDy=0;" edge="1" parent="1" source="F89bRiw3mPa7HIBQUPXN-80" target="F89bRiw3mPa7HIBQUPXN-93">
          <mxGeometry relative="1" as="geometry" />
        </mxCell>
        <mxCell id="F89bRiw3mPa7HIBQUPXN-80" value="The Heart of Hearthglen" style="rounded=0;whiteSpace=wrap;html=1;" vertex="1" parent="1">
          <mxGeometry x="180" y="1320" width="120" height="60" as="geometry" />
        </mxCell>
        <mxCell id="F89bRiw3mPa7HIBQUPXN-101" style="edgeStyle=orthogonalEdgeStyle;rounded=0;orthogonalLoop=1;jettySize=auto;html=1;exitX=0.5;exitY=1;exitDx=0;exitDy=0;entryX=0.5;entryY=0;entryDx=0;entryDy=0;" edge="1" parent="1" source="F89bRiw3mPa7HIBQUPXN-81" target="F89bRiw3mPa7HIBQUPXN-95">
          <mxGeometry relative="1" as="geometry" />
        </mxCell>
        <mxCell id="F89bRiw3mPa7HIBQUPXN-81" value="Expansion of Eastweald Garrisions" style="rounded=0;whiteSpace=wrap;html=1;" vertex="1" parent="1">
          <mxGeometry x="354" y="1320" width="120" height="60" as="geometry" />
        </mxCell>
        <mxCell id="F89bRiw3mPa7HIBQUPXN-102" style="edgeStyle=orthogonalEdgeStyle;rounded=0;orthogonalLoop=1;jettySize=auto;html=1;exitX=0.5;exitY=1;exitDx=0;exitDy=0;entryX=0.25;entryY=0;entryDx=0;entryDy=0;" edge="1" parent="1" source="F89bRiw3mPa7HIBQUPXN-91" target="F89bRiw3mPa7HIBQUPXN-97">
          <mxGeometry relative="1" as="geometry" />
        </mxCell>
        <mxCell id="F89bRiw3mPa7HIBQUPXN-91" value="Investing in Agamand&#39;s Mills" style="rounded=0;whiteSpace=wrap;html=1;" vertex="1" parent="1">
          <mxGeometry y="1440" width="120" height="60" as="geometry" />
        </mxCell>
        <mxCell id="F89bRiw3mPa7HIBQUPXN-103" style="edgeStyle=orthogonalEdgeStyle;rounded=0;orthogonalLoop=1;jettySize=auto;html=1;exitX=0.5;exitY=1;exitDx=0;exitDy=0;" edge="1" parent="1" source="F89bRiw3mPa7HIBQUPXN-93" target="F89bRiw3mPa7HIBQUPXN-97">
          <mxGeometry relative="1" as="geometry" />
        </mxCell>
        <mxCell id="F89bRiw3mPa7HIBQUPXN-93" value="Cear Darrow and the Hills of the Light" style="rounded=0;whiteSpace=wrap;html=1;" vertex="1" parent="1">
          <mxGeometry x="180" y="1440" width="120" height="60" as="geometry" />
        </mxCell>
        <mxCell id="F89bRiw3mPa7HIBQUPXN-104" style="edgeStyle=orthogonalEdgeStyle;rounded=0;orthogonalLoop=1;jettySize=auto;html=1;exitX=0.25;exitY=1;exitDx=0;exitDy=0;entryX=0.75;entryY=0;entryDx=0;entryDy=0;" edge="1" parent="1" source="F89bRiw3mPa7HIBQUPXN-95" target="F89bRiw3mPa7HIBQUPXN-97">
          <mxGeometry relative="1" as="geometry" />
        </mxCell>
        <mxCell id="F89bRiw3mPa7HIBQUPXN-95" value="The Breadbasket of Lordaeron" style="rounded=0;whiteSpace=wrap;html=1;" vertex="1" parent="1">
          <mxGeometry x="354" y="1440" width="120" height="60" as="geometry" />
        </mxCell>
        <mxCell id="F89bRiw3mPa7HIBQUPXN-106" style="edgeStyle=orthogonalEdgeStyle;rounded=0;orthogonalLoop=1;jettySize=auto;html=1;exitX=0.5;exitY=1;exitDx=0;exitDy=0;entryX=0.5;entryY=0;entryDx=0;entryDy=0;" edge="1" parent="1" source="F89bRiw3mPa7HIBQUPXN-97" target="F89bRiw3mPa7HIBQUPXN-98">
          <mxGeometry relative="1" as="geometry" />
        </mxCell>
        <mxCell id="F89bRiw3mPa7HIBQUPXN-107" style="edgeStyle=orthogonalEdgeStyle;rounded=0;orthogonalLoop=1;jettySize=auto;html=1;exitX=0.75;exitY=1;exitDx=0;exitDy=0;" edge="1" parent="1" source="F89bRiw3mPa7HIBQUPXN-97" target="F89bRiw3mPa7HIBQUPXN-100">
          <mxGeometry relative="1" as="geometry" />
        </mxCell>
        <mxCell id="F89bRiw3mPa7HIBQUPXN-108" style="edgeStyle=orthogonalEdgeStyle;rounded=0;orthogonalLoop=1;jettySize=auto;html=1;exitX=0.25;exitY=1;exitDx=0;exitDy=0;" edge="1" parent="1" source="F89bRiw3mPa7HIBQUPXN-97" target="F89bRiw3mPa7HIBQUPXN-99">
          <mxGeometry relative="1" as="geometry" />
        </mxCell>
        <mxCell id="F89bRiw3mPa7HIBQUPXN-97" value="The Creation of the King&#39;s Road" style="rounded=0;whiteSpace=wrap;html=1;" vertex="1" parent="1">
          <mxGeometry x="180" y="1560" width="120" height="60" as="geometry" />
        </mxCell>
        <mxCell id="F89bRiw3mPa7HIBQUPXN-98" value="Development of Capital City" style="rounded=0;whiteSpace=wrap;html=1;" vertex="1" parent="1">
          <mxGeometry x="180" y="1680" width="120" height="60" as="geometry" />
        </mxCell>
        <mxCell id="F89bRiw3mPa7HIBQUPXN-99" value="Tyr&#39;s Hand Fortress-City" style="rounded=0;whiteSpace=wrap;html=1;" vertex="1" parent="1">
          <mxGeometry y="1680" width="120" height="60" as="geometry" />
        </mxCell>
        <mxCell id="F89bRiw3mPa7HIBQUPXN-100" value="Expansion of Tirisfal Monastery" style="rounded=0;whiteSpace=wrap;html=1;" vertex="1" parent="1">
          <mxGeometry x="360" y="1680" width="120" height="60" as="geometry" />
        </mxCell>
        <mxCell id="F89bRiw3mPa7HIBQUPXN-114" style="edgeStyle=orthogonalEdgeStyle;rounded=0;orthogonalLoop=1;jettySize=auto;html=1;exitX=0.5;exitY=1;exitDx=0;exitDy=0;" edge="1" parent="1" source="F89bRiw3mPa7HIBQUPXN-109" target="F89bRiw3mPa7HIBQUPXN-110">
          <mxGeometry relative="1" as="geometry" />
        </mxCell>
        <mxCell id="F89bRiw3mPa7HIBQUPXN-115" style="edgeStyle=orthogonalEdgeStyle;rounded=0;orthogonalLoop=1;jettySize=auto;html=1;exitX=0.25;exitY=1;exitDx=0;exitDy=0;" edge="1" parent="1" source="F89bRiw3mPa7HIBQUPXN-109" target="F89bRiw3mPa7HIBQUPXN-111">
          <mxGeometry relative="1" as="geometry" />
        </mxCell>
        <mxCell id="F89bRiw3mPa7HIBQUPXN-109" value="The Path of The Future" style="rounded=0;whiteSpace=wrap;html=1;" vertex="1" parent="1">
          <mxGeometry x="707" y="970" width="120" height="60" as="geometry" />
        </mxCell>
        <mxCell id="F89bRiw3mPa7HIBQUPXN-118" style="edgeStyle=orthogonalEdgeStyle;rounded=0;orthogonalLoop=1;jettySize=auto;html=1;exitX=0.5;exitY=1;exitDx=0;exitDy=0;" edge="1" parent="1" source="F89bRiw3mPa7HIBQUPXN-110" target="F89bRiw3mPa7HIBQUPXN-112">
          <mxGeometry relative="1" as="geometry" />
        </mxCell>
        <mxCell id="F89bRiw3mPa7HIBQUPXN-120" style="edgeStyle=orthogonalEdgeStyle;rounded=0;orthogonalLoop=1;jettySize=auto;html=1;exitX=0.25;exitY=1;exitDx=0;exitDy=0;" edge="1" parent="1" source="F89bRiw3mPa7HIBQUPXN-110" target="F89bRiw3mPa7HIBQUPXN-113">
          <mxGeometry relative="1" as="geometry" />
        </mxCell>
        <mxCell id="F89bRiw3mPa7HIBQUPXN-110" value="A Different Way" style="rounded=0;whiteSpace=wrap;html=1;" vertex="1" parent="1">
          <mxGeometry x="707" y="1080" width="120" height="60" as="geometry" />
        </mxCell>
        <mxCell id="F89bRiw3mPa7HIBQUPXN-111" value="The Kings of Lordaeron" style="rounded=0;whiteSpace=wrap;html=1;" vertex="1" parent="1">
          <mxGeometry x="530" y="1080" width="120" height="60" as="geometry" />
        </mxCell>
        <mxCell id="F89bRiw3mPa7HIBQUPXN-119" style="edgeStyle=orthogonalEdgeStyle;rounded=0;orthogonalLoop=1;jettySize=auto;html=1;exitX=0.5;exitY=1;exitDx=0;exitDy=0;" edge="1" parent="1" source="F89bRiw3mPa7HIBQUPXN-112" target="F89bRiw3mPa7HIBQUPXN-117">
          <mxGeometry relative="1" as="geometry" />
        </mxCell>
        <mxCell id="F89bRiw3mPa7HIBQUPXN-112" value="Last Heir of Arator" style="rounded=0;whiteSpace=wrap;html=1;" vertex="1" parent="1">
          <mxGeometry x="707" y="1200" width="120" height="60" as="geometry" />
        </mxCell>
        <mxCell id="F89bRiw3mPa7HIBQUPXN-121" style="edgeStyle=orthogonalEdgeStyle;rounded=0;orthogonalLoop=1;jettySize=auto;html=1;exitX=0.5;exitY=1;exitDx=0;exitDy=0;" edge="1" parent="1" source="F89bRiw3mPa7HIBQUPXN-113" target="F89bRiw3mPa7HIBQUPXN-116">
          <mxGeometry relative="1" as="geometry" />
        </mxCell>
        <mxCell id="F89bRiw3mPa7HIBQUPXN-113" value="Whispers of the Frozen North" style="rounded=0;whiteSpace=wrap;html=1;" vertex="1" parent="1">
          <mxGeometry x="530" y="1200" width="120" height="60" as="geometry" />
        </mxCell>
        <mxCell id="F89bRiw3mPa7HIBQUPXN-116" value="Path: Kingdom of Icecrown" style="rounded=0;whiteSpace=wrap;html=1;" vertex="1" parent="1">
          <mxGeometry x="530" y="1320" width="120" height="60" as="geometry" />
        </mxCell>
        <mxCell id="F89bRiw3mPa7HIBQUPXN-117" value="Path: Arathor&#39;s Reborn" style="rounded=0;whiteSpace=wrap;html=1;" vertex="1" parent="1">
          <mxGeometry x="707" y="1320" width="120" height="60" as="geometry" />
        </mxCell>
      </root>
    </mxGraphModel>
  </diagram>
</mxfile>
